<svg id="Layer_1" data-name="Layer 1" xmlns="http://www.w3.org/2000/svg" viewBox="0 0 90 90"><defs><style>.cls-1{fill:#fff;}</style></defs><title>Data Sheets</title><path class="cls-1" d="M86.23,40.5H81V31.1A4.11,4.11,0,0,0,76.9,27H75V0H15V3H10.5V6H6V16.5H4.1A4.11,4.11,0,0,0,0,20.6V86.13H0a3.78,3.78,0,0,0,.78,2.36A3.83,3.83,0,0,0,3.85,90H71a3.8,3.8,0,0,0,3.67-2.72L90,45.22V45C90,42.38,88.42,40.5,86.23,40.5ZM75,30h1.9A1.1,1.1,0,0,1,78,31.1v9.4H75ZM18,3H72V40.5H19.1a3.74,3.74,0,0,0-1,.15H18ZM13.5,6H15V44.38l-.09.26L13.5,48.49ZM9,9h1.5V56.71L9,60.83ZM3,20.6a1.1,1.1,0,0,1,1.1-1.1H6V68.91L3,77.1ZM71.8,86.38A.85.85,0,0,1,71,87H3.85a.82.82,0,0,1-.67-.33A.83.83,0,0,1,3,86.06l3-8.25H6l4.5-12.34L15,53.13h0l2.9-8,.1-.27.24-.66,0-.12a.86.86,0,0,1,.82-.63H86.23c.57,0,.72.82.76,1.23ZM27,25.5H63a1.5,1.5,0,0,0,0-3H27a1.5,1.5,0,0,0,0,3ZM27,15H42a1.5,1.5,0,0,0,0-3H27a1.5,1.5,0,0,0,0,3Zm0,21H63a1.5,1.5,0,0,0,0-3H27a1.5,1.5,0,0,0,0,3Z"/></svg>