<svg xmlns="http://www.w3.org/2000/svg">
	<symbol id="ico-search" viewBox="0 0 23 22.96">
		<path fill="currentColor" d="M22.71,21.25l-5.09-5.09s-.01,0-.02-.01c1.39-1.71,2.22-3.88,2.22-6.24C19.82,4.45,15.38,0,9.91,0S0,4.45,0,9.91s4.45,9.91,9.91,9.91c2.38,0,4.57-.85,6.29-2.25h0l5.09,5.1c.2,.2,.45,.29,.71,.29s.51-.1,.71-.29c.39-.39,.39-1.02,0-1.41Zm-12.8-3.43c-4.36,0-7.91-3.55-7.91-7.91S5.55,2,9.91,2s7.91,3.55,7.91,7.91-3.55,7.91-7.91,7.91Z" />
	</symbol>
	<symbol id="ico-print" viewBox="0 0 28 28">
		<g fill="currentColor" stroke="none">
			<path d="M22.75,17.5H5.25A1.75,1.75,0,0,0,3.5,19.25v7A1.75,1.75,0,0,0,5.25,28h17.5a1.75,1.75,0,0,0,1.75-1.75v-7A1.748,1.748,0,0,0,22.75,17.5Zm0,8.75H5.25v-7h17.5ZM24.5,10.5V3.863a1.752,1.752,0,0,0-.514-1.238L21.873.512A1.828,1.828,0,0,0,20.639,0H7A3.5,3.5,0,0,0,3.5,3.5v7A3.5,3.5,0,0,0,0,14v6.125a.875.875,0,0,0,1.75,0V14A1.75,1.75,0,0,1,3.5,12.25h21A1.75,1.75,0,0,1,26.25,14v6.125a.875.875,0,1,0,1.75,0V14A3.5,3.5,0,0,0,24.5,10.5Zm-1.75,0H5.25v-7A1.75,1.75,0,0,1,7,1.75H20.639L22.75,3.863Zm.875,3.062a1.313,1.313,0,1,0,1.313,1.313A1.312,1.312,0,0,0,23.625,13.563Z" />
		</g>
	</symbol>
	<symbol id="ico-menu" viewBox="0 0 29.4 29.4">
		<g fill="none" stroke="currentColor" stroke-linecap="round" stroke-miterlimit="10" stroke-width="1.4">
			<path d="M29,32.5H8A3.5,3.5,0,0,1,4.5,29V8A3.5,3.5,0,0,1,8,4.5H29A3.5,3.5,0,0,1,32.5,8V29A3.5,3.5,0,0,1,29,32.5ZM18.5,4.5v28M8.7,9.68h5.6M8.7,13.04h5.6M8.7,16.4h5.6" transform="translate(-3.8 -3.8)" />
		</g>
	</symbol>
	<symbol id="ico-close" viewBox="0 0 18 18">
		<g fill="inherit" stroke="currentColor" stroke-width="inherit">
			<circle cx="9" cy="9" r="9" fill="none" stroke="none"></circle>
			<circle cx="9" cy="9" r="8.3" fill="inherit"></circle>
		</g>
		<line x2="6" y2="6" transform="translate(6 6)" fill="none" stroke="inherit" stroke-width="inherit"></line>
		<line x1="6" y2="6" transform="translate(6 6)" fill="none" stroke="inherit" stroke-width="inherit"></line>
	</symbol>
	<symbol id="ico-circle-plus" viewBox="0 0 18 18">
		<g stroke="currentColor" stroke-width="1.4">
			<circle cx="9" cy="9" r="9" fill="none" stroke="none"/>
			<circle cx="9" cy="9" r="8.3" fill="inherit"/>
		</g>
		<line y2="8" transform="translate(9 5)" fill="none" stroke="inherit" stroke-width="inherit"/>
		<line y2="8" transform="translate(13 9) rotate(90)" fill="none" stroke="inherit" stroke-width="1.4"/>
	</symbol>
	<symbol id="ico-circle-right" viewBox="0 0 30 30">
		<g fill="inherit" stroke="currentColor" stroke-width="1.4">
			<circle cx="15" cy="15" r="14.5" stroke="none"/>
			<circle cx="15" cy="15" r="14" fill="none" vector-effect="non-scaling-stroke"/>
		</g>
		<path d="M11.409,9.727l5,5-5,5" transform="translate(1.091 0.273)" fill="none" stroke="inherit" stroke-width="1.4"/>
	</symbol>
	<symbol id="ico-info" viewBox="0 0 16 16">
		<g fill="none" stroke="currentColor" stroke-width="1.4">
			<circle cx="8" cy="8" r="8" stroke="none"/>
			<circle cx="8" cy="8" r="7.3" fill="none"/>
		</g>
		<g transform="translate(6.907 4.161)" fill="none" stroke="currentColor" stroke-linecap="round" stroke-linejoin="round" stroke-width="1.5">
			<path d="M11.341,7.991h-.01a.258.258,0,0,0-.26.26.249.249,0,0,0,.26.25.265.265,0,0,0,.25-.271h0a.264.264,0,0,0-.26-.26h0" transform="translate(-10.122 -7.97)" />
			<path d="M10.5,11.25h1.2v4.424" transform="translate(-10.49 -8.636)"/>
			<path d="M10.49,15.5h2.4" transform="translate(-10.49 -8.462)" />
		</g>
	</symbol>
	<symbol id="ico-double-chevron" viewBox="0 0 10.99 11.485">
		<g fill="none" stroke="currentColor" stroke-width="1.4">
			<path d="M11.409,9.727l5,5-5,5" transform="translate(-9.232 17.399) rotate(-90)"/>
			<path d="M11.409,9.727l5,5-5,5" transform="translate(-9.232 22.399) rotate(-90)"/>
		</g>
	</symbol>
	<symbol id="ico-single-chevron" viewBox="0 0 6.485 10.99">
		<path d="M11.409,9.727l5,5-5,5" transform="translate(-10.914 -9.232)" fill="none" stroke="currentColor" stroke-width="1.4"/>
	</symbol>
	<symbol id="ico-zoom" viewBox="0 0 27.414 27.3648">
		<g stroke="inherit">
			<g transform="translate(0 0)" stroke-linecap="round" stroke-width="2">
				<ellipse cx="11.911" cy="11.906" rx="11.911" ry="11.906" stroke="none"/>
				<ellipse cx="11.911" cy="11.906" rx="10.911" ry="10.906" fill="inherit"/>
			</g>
			<path d="M1488.177,5030.138l-5.089-5.089" transform="translate(-1462.177 -5004.188)" fill="none" stroke-linecap="round" stroke-width="2"/>
			<line y2="8" transform="translate(12 8)" stroke="currentColor" fill="none" stroke-width="1.4"/>
			<line y2="8" transform="translate(16 12) rotate(90)" stroke="currentColor" fill="none" stroke-width="1.4"/>
		</g>
	</symbol>
	<symbol id="ico-tbl-scroll" viewBox="0 0 28.263 24">
		<g transform="translate(4.263)">
			<g fill="none" stroke="currentColor" stroke-linecap="round" stroke-linejoin="round" stroke-width="1.4">
				<path d="M13,12V8.5A1.5,1.5,0,0,0,11.5,7h0A1.5,1.5,0,0,0,10,8.5"/>
				<path d="M13,9.5A1.5,1.5,0,0,1,14.5,8h0A1.5,1.5,0,0,1,16,9.5V13"/>
				<path d="M10,12V3.5A1.5,1.5,0,0,0,8.5,2h0A1.5,1.5,0,0,0,7,3.5V14L5.116,12.116a1.578,1.578,0,0,0-2.233,0h0a1.524,1.524,0,0,0-.19,1.924l3.526,5.288A6,6,0,0,0,11.212,22H13a6,6,0,0,0,6-6V10.5A1.5,1.5,0,0,0,17.5,9h0A1.5,1.5,0,0,0,16,10.5"/>
				<path d="M19.086,1.059,21,2.973,18.973,5"/>
				<path d="M19.086,1.059,21,2.973,18.973,5" transform="translate(17.437 6.059) rotate(180)"/>
				<path d="M21,2.97H15"/>
				<path d="M21,2.97H15" transform="translate(17.437 6.059) rotate(180)"/>
			</g>
			<path d="M0,0H24V24H0Z" fill="none"/>
		</g>
	</symbol>
	<symbol id="ico-circle-minus" viewBox="0 0 18 18">
		<g stroke="currentColor" stroke-width="inherit">
			<circle cx="9" cy="9" r="9" fill="none" stroke="none"/>
			<circle cx="9" cy="9" r="8.3" fill="inherit"/>
		</g>
		<line y2="8" transform="translate(13 9) rotate(90)" fill="none" stroke="inherit" stroke-width="inherit"/>
	</symbol>
	<symbol id="ico-info2" viewBox="0 0 24 24">
		<g fill="none" stroke="currentColor" stroke-linecap="round" stroke-linejoin="round" stroke-width="1.5">
			<path d="M0,0H24V24H0Z" stroke="none"/>
			<path d="M12,21a9,9,0,1,1,9-9,9,9,0,0,1-9,9Z"/>
			<path d="M12,17V12H11"/>
			<path d="M11.749,8a.25.25,0,1,0,.177.073A.25.25,0,0,0,11.749,8"/>
		</g>
	</symbol>
	<symbol id="ico-startover" viewBox="0 0 15.666 18.184">
		<g transform="translate(0.874 0.495)" fill="none" stroke="#e72636" stroke-width="1.4">
			<path d="M8.233,6H11.5A6.975,6.975,0,1,1,5.278,9.777" transform="translate(-4.498 -3.155)"/>
			<path d="M11.345,3,8.5,5.845,11.345,8.69" transform="translate(-4.78 -3)"/>
		</g>
	</symbol>
	<symbol id="ico-dt-results" viewBox="0 0 24 24">
		<path d="M0,0H24V24H0Z" fill="none"/>
		<g fill="none" stroke="currentColor" stroke-linecap="round" stroke-linejoin="round" stroke-width="1.5">
			<path d="M19,9a4,4,0,1,1,4-4,4,4,0,0,1-4,4"/>
			<path d="M15.006,4.765a8.523,8.523,0,1,0,4.229,4.229" />
			<path d="M20.36,4.3,18.66,6,17.638,4.981" />
			<path d="M12.078,9.179l1.73,2.315a2.885,2.885,0,1,1-4.617,0l1.731-2.315a.721.721,0,0,1,1.156,0Z" />
		</g>
	</symbol>
	
</svg>