<?xml version="1.0" encoding="utf-8"?>
<!-- Generator: Adobe Illustrator 23.0.3, SVG Export Plug-In . SVG Version: 6.00 Build 0)  -->
<svg version="1.1" id="svgLube360" xmlns="http://www.w3.org/2000/svg" xmlns:xlink="http://www.w3.org/1999/xlink" x="0px" y="0px"
	 viewBox="0 0 21 20.9" style="enable-background:new 0 0 21 20.9;" xml:space="preserve">
<style type="text/css">
	.st0{fill:#FFFFFF;}
</style>
<title>Icon Lube 360</title>
<path class="st0" d="M21,3.5c0-0.3-0.1-0.5-0.3-0.7l0,0l0,0c-0.2-0.2-0.4-0.3-0.7-0.3H1c-0.3,0-0.5,0.1-0.7,0.3l0,0l0,0
	C0.1,2.9,0,3.2,0,3.5v14c0,0.3,0.1,0.5,0.3,0.7l0,0l0,0c0.2,0.2,0.4,0.3,0.7,0.3h19c0.3,0,0.5-0.1,0.7-0.3l0,0
	c0.2-0.2,0.3-0.4,0.3-0.7V3.5z M1,4.1l6.6,6.3L1,16.8V4.1z M10.5,11.9L1.7,3.5h17.5L10.5,11.9z M8.3,11.1l1.8,1.8
	c0.2,0.2,0.5,0.2,0.7,0l1.8-1.8l6.6,6.3H1.8L8.3,11.1z M13.4,10.4L20,4.1v12.7L13.4,10.4z"/>
</svg>
