<?xml version="1.0" encoding="UTF-8"?>
<svg width="45px" height="45px" viewBox="0 0 45 45" version="1.1" xmlns="http://www.w3.org/2000/svg" xmlns:xlink="http://www.w3.org/1999/xlink">
    <!-- Generator: Sketch 59 (86127) - https://sketch.com -->
    <title>Shape</title>
    <desc>Created with Sketch.</desc>
    <g id="Page-1" stroke="none" stroke-width="1" fill="none" fill-rule="evenodd">
        <g id="Search" transform="translate(-133.000000, -208.000000)" fill="#484848" fill-rule="nonzero">
            <path d="M168.116799,240.290785 C174.460027,232.527336 174.01244,221.032913 166.772789,213.794961 C163.035715,210.058636 158.066103,208 152.78008,208 C147.494056,208 142.524094,210.058586 138.78737,213.794961 C131.070877,221.50991 131.070877,234.060326 138.78737,241.775275 C142.524444,245.51355 147.494056,247.570236 152.78008,247.570236 C157.394273,247.570236 161.766319,246.001897 165.288501,243.119116 L174.585301,252.414054 C174.974047,252.804676 175.487826,253 175.999625,253 C176.511424,253 177.023273,252.804691 177.413949,252.414054 C178.19535,251.632809 178.19535,250.367168 177.413949,249.585973 L168.116799,240.290785 Z M163.944091,238.947044 C160.961114,241.929424 156.997246,243.570063 152.77993,243.570063 C148.562613,243.570063 144.598846,241.927474 141.615768,238.947044 C135.460076,232.792585 135.460076,222.777151 141.615768,216.623193 C144.598746,213.642762 148.562613,212.000173 152.77993,212.000173 C156.997246,212.000173 160.961014,213.642762 163.944091,216.623193 C170.099783,222.779151 170.099783,232.793085 163.944091,238.947044 Z" id="Shape"></path>
        </g>
    </g>
</svg>