<?xml version="1.0" encoding="utf-8"?>
<!-- Generator: Adobe Illustrator 27.8.0, SVG Export Plug-In . SVG Version: 6.00 Build 0)  -->
<svg version="1.1" id="Layer_1" xmlns="http://www.w3.org/2000/svg" xmlns:xlink="http://www.w3.org/1999/xlink" x="0px" y="0px"
	 viewBox="0 0 470.2 113.7" style="enable-background:new 0 0 470.2 113.7;" xml:space="preserve">
<style type="text/css">
	.st0{fill:#66BBEE;}
</style>
<g>
	<g>
		<g>
			<path class="st0" d="M414.1,0h22.1v2.5h-9.6v28h-2.9v-28h-9.6V0z"/>
			<path class="st0" d="M441.5,30.4V0h4.4l10,26.8h0.1L465.8,0h4.4v30.4h-2.9V3.3h-0.1l-10,27.1h-2.7l-10-27.1h-0.1v27.1H441.5z"/>
		</g>
	</g>
	<g>
		<path class="st0" d="M0,111V0h30.9C41,0,55.5,0.9,62.7,9.2C68.8,16,70,24.3,70,33.3c0,12-2.8,25.5-14.7,30.9
			c-9,4.4-19.5,3.1-29.3,3.6V111C26,111,0,111,0,111z M26.1,47.8c4.9-0.1,10.5,0.4,14.7-2.8c2.7-3,3.3-7.4,3.3-11.2
			c0-4.3-0.4-10.8-4.9-12.9C36.7,20,33.1,20,29,20h-2.8L26.1,47.8L26.1,47.8z"/>
		<path class="st0" d="M74.8,0h26v83.8c0,5.3,1.6,9.9,9,9.9c6.8,0,8.9-5.9,8.9-10.7V0h26v80.4c0,18.8-8.4,33.3-35.1,33.3
			c-22.1,0-34.9-10.5-34.9-33.3V0H74.8z"/>
		<path class="st0" d="M177.2,111h-26V0h38c21.3,0,32,8.6,32,30.6c0,11.8-2.8,20.3-13.8,25.3v0.3c7.3,1.6,12.4,6.7,12.9,14.4
			c0.7,8.9,0.9,28,2.4,35.1c0.6,1.5,1.3,2.8,2.5,3.8v1.5h-28.4c-0.7-2.1-1.3-4.1-1.5-6.4c-0.4-9.8,0.1-18.9-0.6-25.8
			c-0.7-6.8-2.8-11.2-8.9-11.7h-8.6L177.2,111L177.2,111z M177.2,47.3h8.9c7.5,0,9.3-7,9.3-13.8c0-13.2-5.5-13.8-18.2-13.5V47.3z"/>
		<path class="st0" d="M228.9,111V0h26v111H228.9z"/>
		<path class="st0" d="M259.8,0h67.5v22.2h-21V111h-26V22.2h-20.4V0H259.8z"/>
		<path class="st0" d="M368.6,36.3h0.3L382.2,0h26l-26.8,64.4V111h-26V64.4L329.2,0h26.3L368.6,36.3z"/>
	</g>
</g>
</svg>
