<?xml version="1.0" standalone="no"?>
<!DOCTYPE svg PUBLIC "-//W3C//DTD SVG 20010904//EN"
 "http://www.w3.org/TR/2001/REC-SVG-20010904/DTD/svg10.dtd">
<svg version="1.0" xmlns="http://www.w3.org/2000/svg"
 width="512.000000pt" height="512.000000pt" viewBox="0 0 512.000000 512.000000"
 preserveAspectRatio="xMidYMid meet">
<metadata>
Created by potrace 1.14, written by Peter Selinger 2001-2017
</metadata>
<g transform="translate(0.000000,512.000000) scale(0.100000,-0.100000)"
fill="#000000" stroke="none">
<path d="M0 2560 l0 -2560 2560 0 2560 0 0 921 0 921 -520 1111 c-286 611
-518 1112 -516 1114 2 2 59 -8 127 -22 68 -15 135 -28 149 -31 14 -2 70 -14
125 -25 55 -12 111 -23 125 -26 14 -2 79 -15 145 -29 151 -31 249 -50 298 -59
21 -3 45 -9 53 -12 12 -4 14 83 14 626 l0 631 -2560 0 -2560 0 0 -2560z m2301
941 c176 -55 296 -198 325 -388 l7 -43 -176 0 -176 0 -11 38 c-14 56 -49 102
-92 124 -43 23 -132 27 -169 8 -90 -46 -130 -141 -130 -308 -1 -212 62 -301
211 -302 95 0 157 51 182 147 l10 43 180 0 180 0 -7 -42 c-36 -209 -175 -361
-380 -413 -33 -8 -102 -15 -155 -15 -221 1 -384 73 -487 217 -166 232 -142
610 51 806 59 60 155 118 226 138 112 30 295 26 411 -10z m-1265 0 c228 -19
358 -108 400 -273 20 -79 14 -191 -14 -266 -63 -165 -202 -232 -479 -232
l-143 0 0 -175 0 -175 -185 0 -185 0 0 565 0 565 253 0 c138 -1 298 -5 353 -9z
m2134 -431 l0 -430 255 0 255 0 0 -130 0 -130 -440 0 -440 0 0 560 0 560 185
0 185 0 0 -430z m276 -904 c96 -45 146 -137 146 -273 0 -132 -52 -228 -150
-277 -78 -39 -198 -29 -271 24 -48 35 -97 129 -107 206 -7 63 9 161 36 215 22
42 80 95 124 115 52 22 163 17 222 -10z m592 -2 c98 -49 148 -154 140 -293 -9
-140 -72 -234 -179 -265 -66 -20 -102 -20 -165 -1 -108 32 -173 126 -182 262
-6 92 10 154 54 220 49 72 112 103 209 103 56 0 82 -5 123 -26z m-3536 -106
l3 -123 168 -3 167 -2 0 125 0 125 25 0 25 0 0 -285 0 -285 -25 0 -25 0 0 140
0 140 -170 0 -170 0 0 -140 0 -140 -25 0 -25 0 0 285 0 285 25 0 24 0 3 -122z
m762 30 c19 -51 69 -180 110 -286 l74 -193 -30 3 c-28 3 -32 9 -61 88 l-32 85
-129 0 -129 0 -32 -85 c-28 -75 -35 -85 -59 -88 -14 -2 -26 0 -26 5 0 8 207
541 216 555 3 4 18 8 34 8 27 0 31 -6 64 -92z m457 -154 l164 -247 3 247 2
246 25 0 25 0 0 -285 0 -285 -30 0 c-29 0 -40 14 -193 246 l-162 246 -3 -246
-2 -246 -25 0 -25 0 0 285 0 285 28 0 c27 0 43 -21 193 -246z m666 218 c80
-42 123 -131 123 -256 0 -102 -23 -172 -74 -222 -54 -54 -92 -64 -253 -64
l-133 0 0 286 0 286 148 -4 c128 -3 152 -6 189 -26z m529 6 c46 -25 68 -65 68
-123 0 -54 -18 -91 -54 -110 -20 -11 -19 -12 17 -36 52 -33 64 -62 60 -136 -2
-49 -8 -68 -27 -89 -43 -47 -76 -54 -240 -54 l-150 0 0 286 0 286 148 -4 c112
-3 154 -8 178 -20z m1404 -125 l1 -148 143 148 c129 132 147 147 177 147 34 0
33 0 -80 -114 -81 -81 -111 -118 -105 -127 4 -8 61 -82 126 -166 65 -83 118
-154 118 -157 0 -3 -13 -6 -29 -6 -26 0 -43 17 -146 150 -63 83 -119 150 -122
150 -4 0 -24 -17 -45 -37 l-38 -37 0 -113 0 -113 -30 0 -30 0 0 285 0 285 30
0 30 0 0 -147z"/>
<path d="M800 3115 l0 -128 103 5 c117 6 158 22 177 67 18 44 15 99 -6 123
-35 38 -76 51 -176 56 l-98 5 0 -128z"/>
<path d="M3266 2138 c-51 -14 -109 -74 -130 -133 -31 -92 -18 -216 31 -287 67
-99 236 -104 316 -9 71 85 75 265 7 361 -42 60 -143 91 -224 68z"/>
<path d="M3863 2141 c-99 -25 -157 -120 -157 -256 1 -72 25 -147 62 -189 27
-31 93 -56 147 -56 132 0 209 94 208 255 0 113 -38 191 -113 230 -34 18 -108
26 -147 16z"/>
<path d="M1141 1983 c-28 -76 -51 -141 -51 -145 0 -14 210 -9 210 4 0 15 -91
260 -100 271 -4 4 -30 -54 -59 -130z"/>
<path d="M2100 1889 l0 -242 109 5 c90 5 117 10 152 29 63 35 92 96 93 197 1
104 -9 146 -47 189 -46 52 -80 63 -202 63 l-105 0 0 -241z"/>
<path d="M2650 2031 l0 -101 100 0 c140 0 180 23 180 104 0 22 -9 45 -24 63
-23 27 -28 28 -140 31 l-116 4 0 -101z"/>
<path d="M2650 1765 l0 -115 79 0 c101 0 181 15 205 40 15 14 20 34 20 74 1
93 -39 116 -206 116 l-98 0 0 -115z"/>
</g>
</svg>
