<svg xmlns="http://www.w3.org/2000/svg" aria-hidden="true" role="none" class="d-none">
	<symbol id="suniso-logo" viewBox="0 0 72.001 19.234">
		<g fill="currentColor">
			<path d="M4.098,13.567c0,.084.004.165.01.244s.017.155.029.228c.013.073.029.144.047.211s.039.131.063.192c.074.2.186.361.324.489s.301.224.479.295.371.117.567.145.395.039.586.039c.168,0,.357-.014.548-.05s.381-.095.551-.185.319-.21.425-.37.171-.359.171-.606c0-.172-.036-.313-.126-.438s-.234-.233-.449-.34-.502-.213-.879-.333-.842-.254-1.415-.417c-.526-.149-1.071-.297-1.592-.477s-1.019-.392-1.451-.669c-.432-.277-.798-.619-1.056-1.06s-.408-.98-.408-1.65c0-.768.164-1.427.453-1.983s.703-1.01,1.202-1.367c.499-.357,1.084-.619,1.716-.791s1.309-.255,1.993-.255c.722,0,1.423.069,2.069.222s1.24.392,1.746.732.926.781,1.226,1.34.48,1.235.508,2.045h-3.874c.019-.126.019-.241.003-.347s-.047-.202-.091-.289-.101-.166-.168-.237-.144-.134-.228-.189c-.084-.061-.176-.112-.273-.155s-.2-.077-.304-.104-.212-.046-.318-.059-.212-.018-.315-.018c-.14,0-.302.009-.466.035s-.331.068-.48.133c-.149.065-.281.154-.375.272s-.151.268-.151.454c.019.237.151.428.369.589s.521.292.881.409.776.222,1.22.329.915.218,1.386.348c.47.13.939.283,1.379.476s.848.428,1.199.723.642.649.846,1.082.32.946.32,1.556c0,.866-.199,1.585-.544,2.177s-.836,1.056-1.419,1.413-1.259.604-1.974.763-1.469.229-2.21.229c-.377,0-.929-.034-1.545-.151s-1.297-.317-1.931-.65c-.634-.333-1.223-.799-1.655-1.446S.009,14.623,0,13.562h4.098v.005Z"/>
			<path d="M24.512,12.897c0,.922-.125,1.724-.375,2.409s-.626,1.251-1.129,1.703c-.503.452-1.133.788-1.89,1.012s-1.644.334-2.659.334-1.902-.111-2.662-.334-1.392-.56-1.897-1.012-.884-1.019-1.136-1.703-.378-1.487-.378-2.409V4.739h4.098v7.245c0,.34,0,.701.031,1.051s.093.689.218.986.311.551.592.731.654.286,1.152.286c.484,0,.847-.106,1.12-.286s.454-.435.575-.731c.121-.297.182-.636.212-.986s.03-.711.03-1.051v-7.245h4.098v8.158Z"/>
			<polygon points="25.611 4.739 26.659 4.739 27.706 4.739 28.754 4.739 29.802 4.739 30.77 6.518 31.739 8.297 32.707 10.075 33.676 11.854 33.685 11.854 33.694 11.854 33.704 11.854 33.713 11.854 33.713 10.075 33.713 8.297 33.713 6.518 33.713 4.739 34.682 4.739 35.65 4.739 36.619 4.739 37.587 4.739 37.587 8.064 37.587 11.388 37.587 14.713 37.587 18.038 36.591 18.038 35.594 18.038 34.598 18.038 33.601 18.038 32.582 16.222 31.562 14.406 30.542 12.59 29.522 10.774 29.513 10.774 29.504 10.774 29.494 10.774 29.485 10.774 29.485 12.59 29.485 14.406 29.485 16.222 29.485 18.038 28.517 18.038 27.548 18.038 26.579 18.038 25.611 18.038 25.611 14.713 25.611 11.388 25.611 8.064 25.611 4.739"/>
			<polygon points="38.723 4.739 39.748 4.739 40.772 4.739 41.796 4.739 42.821 4.739 42.821 8.064 42.821 11.388 42.821 14.713 42.821 18.038 41.796 18.038 40.772 18.038 39.748 18.038 38.723 18.038 38.723 14.713 38.723 11.388 38.723 8.064 38.723 4.739"/>
			<path d="M47.198,13.567c0,.084.003.165.01.244s.017.155.029.228.029.144.047.211.039.131.063.192c.074.2.186.361.324.489s.301.224.479.295.371.117.567.145.395.039.586.039c.168,0,.357-.014.548-.05s.381-.095.551-.185.319-.21.425-.37.171-.359.171-.606c0-.172-.036-.313-.126-.438s-.234-.233-.449-.34-.502-.213-.879-.333-.842-.254-1.415-.417c-.526-.149-1.071-.297-1.592-.477s-1.019-.392-1.451-.669-.798-.619-1.056-1.06-.408-.98-.408-1.65c0-.768.164-1.427.453-1.983s.703-1.01,1.202-1.367c.499-.357,1.084-.619,1.716-.791s1.309-.255,1.993-.255c.722,0,1.423.069,2.069.222s1.24.392,1.746.732c.506.34.926.781,1.226,1.34s.48,1.235.508,2.045h-3.874c.019-.126.019-.241.003-.347s-.047-.202-.091-.289c-.044-.087-.101-.166-.168-.237s-.144-.134-.228-.189c-.084-.061-.176-.112-.273-.155s-.2-.077-.304-.104-.212-.046-.318-.059-.212-.018-.315-.018c-.14,0-.301.009-.466.035s-.331.068-.48.133c-.149.065-.281.154-.375.272s-.151.268-.151.454c.019.237.151.428.369.589s.521.292.881.409c.36.118.776.222,1.22.329.444.107.915.218,1.386.348.47.13.939.283,1.379.476s.848.428,1.199.723c.35.295.642.649.846,1.082s.32.946.32,1.556c0,.866-.199,1.585-.544,2.177s-.836,1.056-1.419,1.413c-.583.356-1.259.604-1.974.763s-1.469.229-2.21.229c-.377,0-.929-.034-1.545-.151s-1.297-.317-1.931-.65-1.223-.799-1.655-1.446-.708-1.478-.717-2.539h4.098v.005Z"/>
			<path d="M62.433.002l-1.463,2.341-1.463,2.341-1.463,2.341-1.463,2.341c-.16.256-.302.522-.424.796s-.225.555-.307.843c-.082.287-.145.581-.187.878s-.063.598-.063.901c0,.889.181,1.737.508,2.508s.8,1.467,1.383,2.05,1.279,1.057,2.05,1.384,1.619.508,2.508.508h.768c.889,0,1.737-.181,2.509-.508s1.467-.8,2.05-1.384,1.057-1.279,1.383-2.05.508-1.619.508-2.508c0-.303-.021-.604-.063-.901s-.104-.59-.187-.878-.185-.569-.307-.843-.263-.54-.424-.796l-1.463-2.342-1.463-2.342-1.463-2.341-1.463-2.341v.002ZM62.732,15.965h-.599c-.448,0-.876-.091-1.265-.256s-.74-.404-1.035-.698c-.295-.295-.533-.645-.698-1.034s-.256-.817-.256-1.265c0-.153.011-.305.032-.454s.053-.298.094-.443c.042-.145.093-.287.155-.425s.133-.272.214-.401l.765-1.224.765-1.224.765-1.224.765-1.224.765,1.224.765,1.224.765,1.224.765,1.224c.081.129.153.263.214.401s.113.28.155.425.073.293.094.443.032.302.032.454c0,.448-.091.876-.256,1.265s-.404.74-.698,1.034-.645.533-1.034.698-.817.256-1.265.256h-.004Z"/>
			<polygon points="68.225 5.445 68.06 5.445 67.894 5.445 67.729 5.445 67.564 5.445 67.564 5.343 67.564 5.241 67.564 5.139 67.564 5.037 68.016 5.037 68.468 5.037 68.92 5.037 69.372 5.037 69.372 5.139 69.372 5.241 69.372 5.343 69.372 5.445 69.207 5.445 69.041 5.445 68.876 5.445 68.711 5.445 68.711 5.895 68.711 6.345 68.711 6.794 68.711 7.244 68.589 7.244 68.468 7.244 68.346 7.244 68.225 7.244 68.225 6.794 68.225 6.345 68.225 5.895 68.225 5.445"/>
			<polygon points="69.624 5.037 69.794 5.037 69.965 5.037 70.136 5.037 70.306 5.037 70.435 5.416 70.564 5.796 70.693 6.175 70.822 6.555 70.824 6.555 70.826 6.555 70.828 6.555 70.829 6.555 70.951 6.175 71.073 5.796 71.195 5.416 71.317 5.037 71.488 5.037 71.659 5.037 71.83 5.037 72.001 5.037 72.001 5.589 72.001 6.141 72.001 6.692 72.001 7.244 71.887 7.244 71.773 7.244 71.66 7.244 71.546 7.244 71.546 6.853 71.546 6.462 71.546 6.071 71.546 5.68 71.545 5.68 71.543 5.68 71.542 5.68 71.54 5.68 71.405 6.071 71.27 6.462 71.134 6.853 70.999 7.244 70.905 7.244 70.812 7.244 70.718 7.244 70.625 7.244 70.489 6.857 70.354 6.47 70.219 6.082 70.084 5.695 70.082 5.695 70.081 5.695 70.08 5.695 70.078 5.695 70.078 6.082 70.078 6.47 70.078 6.857 70.078 7.244 69.964 7.244 69.851 7.244 69.737 7.244 69.624 7.244 69.624 6.692 69.624 6.141 69.624 5.589 69.624 5.037"/>
		</g>
	</symbol>
  <symbol id="ico-search" viewBox="0 0 23 23">
    <path fill="currentColor" stroke="currentColor" stroke-width="1.5" d="M21.2,20l-4.4-4.4c0,0,0,0,0,0c1.2-1.5,1.9-3.4,1.9-5.4c0-4.7-3.9-8.6-8.6-8.6s-8.6,3.9-8.6,8.6 s3.9,8.6,8.6,8.6c2.1,0,4-0.7,5.5-2l0,0l4.4,4.4c0.2,0.2,0.4,0.3,0.6,0.3s0.4-0.1,0.6-0.3C21.6,20.9,21.6,20.3,21.2,20L21.2,20z M10.1,17c-3.8,0-6.9-3.1-6.9-6.9s3.1-6.9,6.9-6.9S17,6.3,17,10.1S13.9,17,10.1,17z" />
  </symbol>
  <symbol id="ico-close" viewBox="0 0 23 23">
    <path d="M3.2,3.3l16.3,16.3" stroke="currentColor" stroke-width="2" stroke-linecap="round" />
    <path d="M19.8,3.3L3.4,19.7" stroke="currentColor" stroke-width="2" stroke-linecap="round" />
  </symbol>
  <symbol id="ico-hamburger" viewBox="0 0 19 19">
    <path d="M1,4.3h17 M1,9.5h17 M1,14.7h17" stroke="currentColor" stroke-width="2" stroke-linecap="round" stroke-linejoin="round" />
  </symbol>
  <symbol id="ico-lock" viewBox="0 0 70 100">
    <path fill="currentColor" d="M5,99.5h60c2.5,0,4.5-2,4.5-4.5V44c0-2.5-2-4.5-4.5-4.5h-4.5V26C60.5,12,49.1,0.5,35,0.5S9.5,12,9.5,26v13.5H5 c-2.5,0-4.5,2-4.5,4.5v51C0.5,97.5,2.5,99.5,5,99.5z M39.5,71v6c0,2.5-2,4.5-4.5,4.5s-4.5-2-4.5-4.5v-6c-1.8-1.4-3-3.5-3-6 c0-4.1,3.4-7.5,7.5-7.5s7.5,3.4,7.5,7.5C42.5,67.5,41.3,69.7,39.5,71z M18.5,26c0-9.1,7.4-16.5,16.5-16.5S51.5,16.9,51.5,26v13.5 h-33V26z"></path>
  </symbol>
  <symbol id="ico-list" viewBox="0 0 20 29">
    <g fill="currentColor">
      <rect y="6" width="20" height="3"></rect>
      <rect y="13" width="20" height="3"></rect>
      <rect y="20" width="20" height="3"></rect>
    </g>
  </symbol>
  <symbol id="ico-grid" viewBox="0 0 29 29">
    <g fill="white">
      <rect width="29" height="29" fill="currentColor"></rect>
      <rect x="5" y="5" width="8" height="8"></rect>
      <rect x="16" y="5" width="8" height="8"></rect>
      <rect x="5" y="16" width="8" height="8"></rect>
      <rect x="16" y="16" width="8" height="8"></rect>
    </g>
  </symbol>
  <symbol id="ico-cbox" viewBox="0 0 18 18" fill="inherit">
    <rect x="1" y="1" width="16" height="16" stroke="currentColor" stroke-width="2"></rect>
  </symbol>
</svg>